<svg width="114" height="33" viewBox="0 0 114 33" fill="none" xmlns="http://www.w3.org/2000/svg">
<path fill-rule="evenodd" clip-rule="evenodd" d="M70.6871 28.9025C71.4416 28.8249 72.172 28.6938 72.8785 28.5119H72.8809V25.7845C72.1385 25.9786 71.4272 26.1218 70.7446 26.2116C70.0621 26.3013 69.4346 26.3474 68.8598 26.3474C67.5186 26.3474 66.5032 26.0223 65.8158 25.3744C65.1261 24.7266 64.7836 23.7487 64.7836 22.4384V13.1644H72.8785V10.5099H64.7836V4.67178L61.6605 5.4895V10.5074H56.6168V13.1644H61.6605V22.6932C61.6605 24.8382 62.2162 26.4299 63.3298 27.466C64.4411 28.5021 66.1295 29.0214 68.3904 29.0214C69.1687 29.0214 69.9327 28.9826 70.6871 28.9025ZM114 18.6749C114 19.1238 113.993 19.4999 113.981 19.8008C113.969 20.1041 113.952 20.3905 113.928 20.6549H101.273C101.273 22.5209 101.788 23.9549 102.818 24.9546C103.848 25.9544 105.33 26.4542 107.27 26.4542C107.797 26.4542 108.324 26.4324 108.848 26.3911C109.375 26.3499 109.883 26.2916 110.374 26.2188C110.865 26.146 111.334 26.0635 111.782 25.9738C112.23 25.8816 112.647 25.7821 113.03 25.6729V28.2741C112.18 28.5167 111.219 28.7132 110.149 28.8661C109.078 29.0166 107.967 29.0942 106.82 29.0942C105.275 29.0942 103.948 28.8807 102.835 28.4585C101.721 28.0338 100.809 27.4199 100.097 26.6119C99.3859 25.8063 98.859 24.8188 98.519 23.6468C98.1789 22.4772 98.0064 21.1524 98.0064 19.6722C98.0064 18.3886 98.1885 17.1705 98.5525 16.0252C98.9189 14.8799 99.4506 13.873 100.15 13.0067C100.849 12.1405 101.709 11.4513 102.725 10.9418C103.742 10.4322 104.897 10.1774 106.188 10.1774C107.445 10.1774 108.556 10.3788 109.526 10.7768C110.496 11.1771 111.313 11.7449 111.976 12.4777C112.64 13.2105 113.143 14.1035 113.485 15.1517C113.83 16.2048 114 17.3768 114 18.6749ZM110.752 18.2188C110.788 17.4059 110.709 16.6634 110.52 15.9913C110.328 15.3191 110.032 14.7392 109.632 14.2539C109.232 13.7686 108.731 13.3901 108.132 13.1159C107.534 12.8441 106.839 12.7082 106.051 12.7082C105.369 12.7082 104.746 12.8417 104.185 13.1086C103.623 13.3755 103.139 13.7516 102.732 14.2369C102.325 14.7222 101.996 15.3046 101.745 15.9816C101.494 16.661 101.338 17.4059 101.278 18.2188H110.752ZM49.6426 28.7957C50.4952 28.6429 51.3311 28.4099 52.1454 28.0945H52.1406V25.1488C51.3981 25.537 50.6294 25.8282 49.8342 26.0223C49.0391 26.2164 48.2176 26.3135 47.3674 26.3135C45.4874 26.3135 44.0193 25.7651 42.9607 24.6683C41.9021 23.5716 41.3728 21.9191 41.3728 19.7135C41.3728 18.658 41.5285 17.7141 41.8399 16.8769C42.1512 16.0398 42.5751 15.3313 43.114 14.7489C43.6528 14.1666 44.2779 13.7201 44.9892 13.4119C45.7005 13.1038 46.4573 12.9485 47.2597 12.9485C48.1194 12.9485 48.9553 13.0431 49.7624 13.2299C50.5695 13.4192 51.3622 13.7177 52.1406 14.1302V11.1116C51.3981 10.8083 50.6222 10.5899 49.8079 10.4565C48.9936 10.3206 48.1218 10.2551 47.1878 10.2551C45.849 10.2551 44.6228 10.4832 43.5091 10.9369C42.3979 11.3907 41.4399 12.0361 40.6376 12.8732C39.8377 13.7104 39.215 14.7149 38.7719 15.8918C38.3289 17.0686 38.1085 18.3789 38.1085 19.8202C38.1085 22.8291 38.8773 25.1124 40.4149 26.6774C41.9524 28.2425 44.1462 29.0238 46.9938 29.0238C47.9039 29.0238 48.7852 28.9462 49.6426 28.7957ZM90.2539 28.7666H93.0536H93.056V10.5074H89.933V22.6204C89.3582 23.3605 88.8409 23.9719 88.3811 24.4572C87.9188 24.9425 87.4877 25.3283 87.0878 25.6122C86.6854 25.8961 86.3022 26.0975 85.9382 26.2116C85.5718 26.3256 85.1982 26.3838 84.815 26.3838C82.7337 26.3838 81.6919 24.9838 81.6919 22.1836V10.5074H78.5689V22.4384C78.5689 24.6683 79.0407 26.3353 79.9867 27.4394C80.9327 28.5434 82.3314 29.0942 84.1875 29.0942C84.7263 29.0942 85.2389 29.0408 85.7227 28.9389C86.2064 28.837 86.6878 28.6574 87.1668 28.4027C87.6458 28.1479 88.1272 27.8106 88.611 27.3932C89.0947 26.9759 89.6073 26.4518 90.1461 25.8209L90.2539 28.7666Z" fill="white"/>
<path d="M12.176 32.8412C11.8934 32.8412 11.6084 32.7927 11.3282 32.6908C4.59117 30.2376 0.0646973 23.7177 0.0646973 16.4626C0.0646973 9.13949 4.65104 2.59772 11.4767 0.183385C12.7819 -0.280071 14.2117 0.421179 14.6667 1.74361C15.1218 3.06603 14.432 4.51463 13.1268 4.97566C8.31054 6.67905 5.07495 11.2942 5.07495 16.4601C5.07495 21.5776 8.26743 26.1806 13.0214 27.9107C14.3243 28.3838 14.9996 29.8373 14.5326 31.1573C14.1662 32.1958 13.2034 32.8412 12.176 32.8412Z" fill="white"/>
<path d="M21.8588 32.8844C20.8218 32.8844 19.8543 32.2292 19.4926 31.181C19.0376 29.8561 19.7273 28.4099 21.0326 27.9489C25.8488 26.248 29.0844 21.6304 29.0844 16.4644C29.0844 11.2475 25.8081 6.61781 20.9296 4.94354C19.6195 4.49464 18.9154 3.05332 19.3609 1.72604C19.804 0.398762 21.2266 -0.31462 22.5366 0.134277C29.4508 2.50494 34.0947 9.06854 34.0947 16.462C34.0947 23.7851 29.5083 30.3269 22.6827 32.7412C22.4121 32.8382 22.1342 32.8844 21.8588 32.8844Z" fill="white"/>
</svg>
