<svg width="100" height="100" viewBox="0 0 100 100" fill="none" xmlns="http://www.w3.org/2000/svg">
<path d="M35.5214 34.4939C28.2361 27.132 16.3649 27.086 9.00298 34.3712C1.64101 41.6565 1.595 53.5277 8.88028 60.8896C16.1656 68.2516 28.0367 68.2976 35.3987 61.0123C35.414 60.997 35.4447 60.9663 35.46 60.951C38.8496 57.5614 44.7699 52.8682 44.7699 47.6995C44.7852 42.5461 38.8803 37.8835 35.5214 34.4939ZM34.5705 58.3283C31.7637 61.1504 27.96 62.7301 23.9723 62.7301C23.5122 62.7301 23.0521 62.6995 22.5919 62.6688C22.3619 62.6535 22.1318 62.6228 21.9018 62.5921C21.4416 62.6535 20.9968 62.6995 20.5214 62.7148C20.2913 62.7301 20.0613 62.7301 19.8312 62.7301C11.549 62.6688 4.87721 55.9203 4.93856 47.6228C4.99991 39.4173 11.6257 32.7762 19.8312 32.7301C20.0613 32.7301 20.2913 32.7301 20.5214 32.7455C20.9815 32.7608 21.4416 32.8068 21.9018 32.8682C22.1318 32.8375 22.3619 32.8068 22.5919 32.7915C23.0521 32.7455 23.5122 32.7301 23.9723 32.7301C27.9754 32.7301 31.8097 34.3252 34.6165 37.178C37.3005 39.8927 42.0245 43.6197 42.0245 47.7455C42.0245 51.8559 37.2852 55.6136 34.5705 58.3283Z" fill="white"/>
<path d="M34.6166 37.1626C31.8098 34.3252 27.9755 32.7148 23.9724 32.7148C23.2822 32.6994 22.592 32.7454 21.9019 32.8681C25.5062 33.2056 29.4479 34.724 31.8559 37.1626C34.5399 39.8773 39.2638 43.6043 39.2638 47.7301C39.2638 51.8712 34.5246 55.6135 31.8098 58.3283C29.0491 61.089 25.4908 62.2546 21.9019 62.5767C22.592 62.6841 23.2822 62.7301 23.9724 62.7301C27.9448 62.7301 31.7638 61.1503 34.5706 58.3283C37.2853 55.6135 42.0246 51.8559 42.0246 47.7301C42.0246 43.6043 37.3006 39.8773 34.6166 37.1626Z" fill="#EEEEEE"/>
<path d="M21.9019 32.8682C25.1534 33.3129 28.1749 34.8314 30.4755 37.1626C33.1595 39.8774 37.8834 43.6044 37.8834 47.7301C37.8834 51.8712 33.1442 55.6136 30.4295 58.3283C28.1288 60.6443 25.1227 62.132 21.9019 62.5768C25.4448 62.27 29.1104 61.0737 31.8098 58.3283C34.5092 55.5829 39.2638 51.8559 39.2638 47.7301C39.2638 43.6197 34.5399 39.8774 31.8558 37.1626C29.4479 34.724 25.5215 33.2056 21.9019 32.8682Z" fill="#9E9E9E"/>
<path d="M6.22679 47.7299C6.22679 39.6931 12.6838 33.098 21.917 32.868C21.2268 32.7759 20.5366 32.7146 19.8464 32.7146C11.5642 32.7759 4.89244 39.5244 4.95379 47.8219C5.01514 56.0275 11.6409 62.6686 19.8464 62.7146C20.5366 62.7452 21.2268 62.6992 21.917 62.5612C13.9875 62.7913 6.22679 55.7667 6.22679 47.7299Z" fill="#EEEEEE"/>
<path d="M8.97241 47.7301C8.95707 40.2455 14.4939 33.8958 21.9019 32.8682C12.6841 33.0829 6.21167 39.678 6.21167 47.7301C6.21167 55.7823 13.9571 62.8068 21.9019 62.5921C14.4939 61.5492 8.98774 55.2148 8.97241 47.7301Z" fill="#9E9E9E"/>
<path d="M55.0922 41.5338C51.7946 41.5338 49.1106 44.2178 49.1106 47.5154C49.1106 50.8129 51.7946 53.497 55.0922 53.497C58.3897 53.497 61.0738 50.8129 61.0738 47.5154C61.0738 47.4847 61.0738 47.454 61.0738 47.4387C61.0891 44.1871 58.4664 41.5491 55.2149 41.5338C55.1689 41.5338 55.1382 41.5338 55.0922 41.5338ZM55.0922 51.7178C52.8376 51.6565 51.0738 49.77 51.1351 47.5154C51.1351 47.4847 51.1351 47.4693 51.1351 47.4387C51.0738 45.2608 52.7916 43.4356 54.9695 43.3743C57.1474 43.3129 58.9726 45.0307 59.0339 47.2086C59.0339 47.2853 59.0339 47.362 59.0339 47.4387C59.1413 49.6933 57.4081 51.6105 55.1535 51.7178C55.1382 51.7178 55.1229 51.7178 55.0922 51.7178ZM67.6229 46.6871C66.4419 46.1963 65.4143 45.7669 65.4143 44.8313C65.4143 43.9878 66.2118 43.3436 67.2701 43.3436C68.2057 43.3743 69.1106 43.727 69.8468 44.3252L70.6904 42.7301C69.7394 41.9325 68.5278 41.5031 67.2854 41.5338C65.0922 41.5338 63.4358 42.9601 63.4358 44.862C63.4358 46.8558 65.1689 47.6074 66.7026 48.2669C67.9143 48.7884 68.9726 49.2485 68.9726 50.1994C68.9726 51.2424 68.083 51.7025 67.1934 51.7025C66.1198 51.6565 65.0769 51.227 64.2793 50.5062L63.221 51.9785C64.2946 52.9755 65.7057 53.5276 67.1627 53.5123C69.3867 53.5123 70.9511 52.1319 70.9511 50.1534C70.9358 48.0522 69.1719 47.3313 67.6229 46.6871ZM80.675 41.7332H73.1597V43.3589H75.9818V53.3129H77.8223V43.3589H80.675V41.7332ZM49.8468 60.3528C49.8468 59.0184 50.583 58.0368 51.9173 58.0368C53.2364 58.0368 53.8805 59.0184 53.8805 60.2608C53.8805 61.7178 53.175 62.6687 51.8407 62.6687C50.4756 62.6687 49.8468 61.6871 49.8468 60.3528ZM53.4511 60.3221C53.4511 59.0798 52.8376 58.4049 51.9173 58.4049C50.9818 58.4049 50.2916 59.0951 50.2916 60.3528C50.2916 61.6105 50.9357 62.3006 51.8713 62.3006C52.7916 62.3006 53.4511 61.6565 53.4511 60.3221ZM56.8867 60.3221L56.4726 60.3681C56.3959 59.954 56.2732 59.7239 55.7517 59.7239C55.1996 59.7239 55.0769 59.9693 55.0769 60.2301C55.0769 60.5982 55.3529 60.6902 55.8284 60.7976C56.4112 60.9356 56.9327 61.0583 56.9327 61.7485C56.9327 62.3006 56.5186 62.6534 55.7517 62.6534C55.0615 62.6534 54.6167 62.3927 54.5247 61.7025L54.9235 61.6411C54.9542 62.0399 55.3069 62.3466 55.721 62.316C55.7364 62.316 55.7517 62.316 55.7824 62.316C56.1965 62.316 56.5186 62.1933 56.5186 61.7945C56.5186 61.4264 56.2578 61.3497 55.7977 61.227C55.2762 61.089 54.6474 61.0123 54.6474 60.2914C54.6474 59.6779 55.1689 59.3865 55.767 59.3865C56.3038 59.3098 56.7946 59.6779 56.8713 60.2147C56.8713 60.2454 56.8867 60.2914 56.8867 60.3221ZM59.402 62.4693C59.1873 62.592 58.9419 62.6687 58.6812 62.6687C58.2824 62.7301 57.8989 62.4693 57.8376 62.0706C57.8223 61.9939 57.8223 61.9172 57.8376 61.8252V59.7853H57.3468V59.4325H57.8376V58.5276L58.2517 58.4663V59.4325H59.1413V59.7853H58.2517V61.7638C58.2517 62.1166 58.3284 62.3313 58.7425 62.3313C58.9419 62.316 59.1413 62.27 59.31 62.1779L59.402 62.4693ZM62.1321 60.3221L61.718 60.3681C61.6413 59.954 61.5186 59.7239 60.9971 59.7239C60.445 59.7239 60.3223 59.9693 60.3223 60.2301C60.3223 60.5982 60.5983 60.6902 61.0738 60.7976C61.6566 60.9356 62.1781 61.0583 62.1781 61.7485C62.1781 62.3006 61.764 62.6534 60.9971 62.6534C60.3069 62.6534 59.8621 62.3927 59.7701 61.7025L60.1689 61.6411C60.1996 62.0399 60.5523 62.3466 60.9664 62.316C60.9818 62.316 60.9971 62.316 61.0278 62.316C61.4419 62.316 61.764 62.1933 61.764 61.7945C61.764 61.4264 61.5032 61.3497 61.0431 61.227C60.5216 61.089 59.8928 61.0123 59.8928 60.2914C59.8928 59.6779 60.4143 59.3865 61.0124 59.3865C61.5492 59.3098 62.04 59.6779 62.1167 60.2147C62.1321 60.2454 62.1321 60.2914 62.1321 60.3221ZM62.8529 61.043C62.8529 59.9387 63.4051 59.3865 64.356 59.3865C64.9388 59.3252 65.4603 59.7546 65.5063 60.3528C65.5063 60.3835 65.5063 60.4141 65.5063 60.4448L65.0922 60.5062C65.0308 60 64.8008 59.7546 64.31 59.7546C63.8192 59.7546 63.2824 60.0307 63.2824 60.997C63.2824 62.0399 63.7885 62.316 64.31 62.316C64.7241 62.362 65.0922 62.0706 65.1382 61.6565C65.1382 61.6411 65.1382 61.6258 65.1382 61.6258L65.537 61.7025C65.445 62.316 64.8928 62.7454 64.2793 62.6841C63.2364 62.6687 62.8529 61.9939 62.8529 61.043ZM68.9726 62.592H68.5585V60.5062C68.5585 60.0307 68.3897 59.7393 67.8989 59.7393C67.5002 59.77 67.1321 59.9233 66.8407 60.1841V62.592H66.4265V57.9295H66.8407V59.8313C67.1627 59.5552 67.5769 59.4019 68.0063 59.3865C68.6812 59.3865 68.9726 59.77 68.9726 60.4755V62.592ZM70.5523 62.592L69.5247 59.4325H69.9542L70.7977 62.1626L71.5492 59.4325H72.0094L72.7456 62.1626L73.5891 59.4325H73.9879L72.991 62.592H72.4848L71.764 59.8927L71.0431 62.592H70.5523ZM74.4174 61.0123C74.2947 60.2301 74.8315 59.5092 75.6137 59.3865C75.7057 59.3712 75.7977 59.3712 75.8897 59.3712C76.764 59.3712 77.1167 59.954 77.1167 60.7055C77.1167 60.8282 77.1014 60.9663 77.0861 61.089H74.8621C74.8928 62.0399 75.3223 62.2853 75.8897 62.2853C76.2732 62.3466 76.6259 62.0706 76.6873 61.6871L77.0861 61.7638C76.9634 62.3313 76.4419 62.7147 75.8591 62.6534C74.7394 62.6687 74.4174 61.8865 74.4174 61.0123ZM76.6719 60.7669C76.6873 60.1227 76.4419 59.7393 75.8437 59.7393C75.3069 59.7239 74.8621 60.1381 74.8468 60.6749C74.8468 60.7055 74.8468 60.7362 74.8468 60.7669H76.6719ZM78.267 58.6657C78.083 58.6657 77.945 58.5123 77.945 58.3282C77.945 58.1442 78.0983 58.0062 78.2824 58.0062C78.4664 58.0062 78.6045 58.1595 78.6045 58.3282C78.6198 58.497 78.4971 58.635 78.3284 58.6503C78.3131 58.681 78.2824 58.681 78.267 58.6657ZM78.4664 62.592H78.0523V59.4325H78.4664V62.592ZM79.7088 62.2546H81.6873V62.6074H79.218V62.316L81.1351 59.8006H79.2486V59.4479H81.6259V59.7393L79.7088 62.2546ZM82.1321 61.0123C82.0094 60.2301 82.5462 59.5092 83.3284 59.3865C83.4204 59.3712 83.5124 59.3712 83.6045 59.3712C84.4787 59.3712 84.8315 59.954 84.8315 60.7055C84.8315 60.8282 84.8161 60.9663 84.8008 61.089H82.5769C82.6075 62.0399 83.037 62.2853 83.6045 62.2853C83.9879 62.3466 84.3407 62.0706 84.402 61.6871L84.8008 61.7638C84.6781 62.3313 84.1566 62.7147 83.5738 62.6534C82.4542 62.6687 82.1321 61.8865 82.1321 61.0123ZM84.3867 60.7669C84.402 60.1227 84.1566 59.7393 83.5585 59.7393C83.0216 59.7239 82.5769 60.1381 82.5615 60.6749C82.5615 60.7055 82.5615 60.7362 82.5615 60.7669H84.3867ZM87.3161 59.816C86.902 59.77 86.4879 59.8927 86.1658 60.1841V62.6074H85.7517V59.4479H86.0891L86.1198 59.8927C86.3652 59.5399 86.7793 59.3559 87.1934 59.3865H87.2854L87.3161 59.816ZM50.5677 69.7546H50.1535V65.2761H52.6996V65.6289H50.5677V67.3773H52.5308V67.7454H50.5677V69.7546ZM55.4756 69.2485C55.4756 69.4172 55.5063 69.4939 55.675 69.4939C55.7364 69.4939 55.8131 69.4785 55.8744 69.4632L55.9051 69.7239C55.7824 69.7853 55.6597 69.816 55.5216 69.816C55.3223 69.8313 55.1382 69.6779 55.1075 69.4785C55.1075 69.4632 55.1075 69.4325 55.1075 69.4172C54.8315 69.6933 54.448 69.8466 54.0492 69.8313C53.6045 69.8927 53.1904 69.5859 53.1137 69.1411C53.0983 69.0798 53.0983 69.0338 53.0983 68.9724C53.0983 68.0828 53.9112 67.9141 54.6321 67.9141C54.8161 67.9141 54.9235 67.9141 55.0462 67.9295V67.6074C55.0462 67.1319 54.9081 66.8712 54.356 66.8712C53.8499 66.8712 53.6811 67.0706 53.6045 67.4387L53.2057 67.3773C53.2977 66.7945 53.6965 66.5491 54.3713 66.5491C55.1229 66.5491 55.445 66.8405 55.445 67.6227L55.4756 69.2485ZM55.0615 68.2669C54.9388 68.2516 54.8008 68.2516 54.6627 68.2516C54.2333 68.2516 53.5278 68.2822 53.5278 68.9264C53.5278 69.2332 53.6351 69.5092 54.1259 69.5092C54.4787 69.4939 54.8161 69.3405 55.0462 69.0798L55.0615 68.2669ZM56.3652 68.1902C56.3652 67.0859 56.9173 66.5338 57.8683 66.5338C58.4511 66.4724 58.9726 66.9019 59.0186 67.5C59.0186 67.5307 59.0186 67.5614 59.0186 67.592L58.6045 67.6534C58.5431 67.1473 58.3131 66.9019 57.8223 66.9019C57.3315 66.9019 56.7946 67.1779 56.7946 68.1442C56.7946 69.1871 57.3008 69.4632 57.8223 69.4632C58.2364 69.5092 58.6045 69.2178 58.6505 68.8037C58.6505 68.7884 58.6505 68.773 58.6505 68.773L59.0492 68.8497C58.9572 69.4632 58.4051 69.8927 57.7916 69.8313C56.7486 69.8313 56.3652 69.1565 56.3652 68.1902ZM62.4848 69.7546H62.0707V67.6687C62.0707 67.1933 61.902 66.9019 61.4112 66.9019C61.0124 66.9325 60.6443 67.0859 60.3529 67.3466V69.7546H59.9388V65.092H60.3529V66.9939C60.6904 66.7178 61.0891 66.5644 61.5186 66.5491C62.1934 66.5491 62.4848 66.9325 62.4848 67.6381V69.7546ZM66.1198 69.7546H65.7057V67.6687C65.7057 67.1933 65.537 66.9019 65.0462 66.9019C64.6474 66.9325 64.2793 67.0859 63.9879 67.3466V69.7546H63.5738V65.092H63.9879V66.9939C64.3253 66.7178 64.7241 66.5644 65.1535 66.5491C65.8284 66.5491 66.1198 66.9325 66.1198 67.6381V69.7546ZM66.994 68.1902C66.8713 67.3927 67.4235 66.6565 68.221 66.5491C68.3131 66.5338 68.4051 66.5338 68.5124 66.5338C69.4787 66.5338 69.8775 67.1779 69.8775 68.1135C69.8775 69.1565 69.4634 69.8313 68.4204 69.8313C67.3468 69.8313 66.994 69.1258 66.994 68.1902ZM69.448 68.1442C69.448 67.2086 69.0953 66.8865 68.4818 66.8865C67.8529 66.8865 67.4235 67.27 67.4235 68.1595C67.4235 69.0491 67.7609 69.4632 68.4511 69.4632C69.0646 69.4785 69.448 69.1105 69.448 68.1442ZM70.5983 68.1902C70.5983 67.0859 71.1505 66.5338 72.1014 66.5338C72.6842 66.4878 73.2057 66.9172 73.2517 67.5C73.2517 67.5307 73.2517 67.5614 73.2517 67.592L72.8376 67.6534C72.7762 67.1473 72.5462 66.9019 72.0554 66.9019C71.5646 66.9019 71.0278 67.1779 71.0278 68.1442C71.0278 69.1871 71.5339 69.4632 72.0554 69.4632C72.4695 69.5092 72.8376 69.2178 72.8836 68.8037C72.8836 68.7884 72.8836 68.773 72.8836 68.773L73.2824 68.8497C73.1904 69.4632 72.6382 69.8927 72.0247 69.8313C70.9818 69.8313 70.5983 69.1565 70.5983 68.1902ZM76.718 69.7546H76.3039V67.6687C76.3039 67.1933 76.1351 66.9019 75.6443 66.9019C75.2456 66.9325 74.8775 67.0859 74.5861 67.3466V69.7546H74.1719V65.092H74.5861V66.9939C74.9235 66.7178 75.3223 66.5644 75.7517 66.5491C76.4265 66.5491 76.718 66.9325 76.718 67.6381V69.7546ZM79.8775 67.4847L79.4634 67.5307C79.3867 67.1166 79.264 66.8865 78.7425 66.8865C78.1904 66.8865 78.0677 67.1319 78.0677 67.3927C78.0677 67.7608 78.3437 67.8528 78.8192 67.9601C79.402 68.0982 79.9235 68.2209 79.9235 68.9111C79.9235 69.4632 79.5094 69.816 78.7425 69.816C78.0523 69.816 77.6075 69.5552 77.5155 68.8651L77.9143 68.8037C77.945 69.2025 78.2977 69.5092 78.7118 69.4785C78.7272 69.4785 78.7578 69.4785 78.7732 69.4785C79.1873 69.4785 79.5094 69.3559 79.5094 68.9571C79.5094 68.589 79.2486 68.5123 78.7885 68.3896C78.267 68.2516 77.6382 68.1749 77.6382 67.454C77.6382 66.8405 78.1597 66.5491 78.7578 66.5491C79.2946 66.4724 79.7854 66.8405 79.8621 67.362C79.8775 67.408 79.8775 67.4387 79.8775 67.4847ZM80.6137 68.1902C80.6137 67.0859 81.1658 66.5338 82.1167 66.5338C82.6996 66.4878 83.221 66.9172 83.267 67.5C83.267 67.5307 83.267 67.5614 83.267 67.592L82.8529 67.6534C82.7916 67.1473 82.5615 66.9019 82.0707 66.9019C81.5799 66.9019 81.0431 67.1779 81.0431 68.1442C81.0431 69.1871 81.5493 69.4632 82.0707 69.4632C82.4848 69.5092 82.8529 69.2178 82.8989 68.8037C82.8989 68.7884 82.8989 68.773 82.8989 68.773L83.2977 68.8497C83.2057 69.4632 82.6535 69.8927 82.04 69.8313C80.9971 69.8313 80.6137 69.1565 80.6137 68.1902ZM86.7333 69.7546H86.3192V67.6687C86.3192 67.1933 86.1505 66.9019 85.6597 66.9019C85.2609 66.9325 84.8928 67.0859 84.6014 67.3466V69.7546H84.1873V65.092H84.6014V66.9939C84.9388 66.7178 85.3376 66.5644 85.767 66.5491C86.4419 66.5491 86.7333 66.9325 86.7333 67.6381V69.7546ZM87.8223 66.5951H88.2364V68.681C88.2364 69.1565 88.3897 69.4479 88.8805 69.4479C89.2793 69.4172 89.6474 69.2638 89.9388 69.0031V66.5951H90.3529V69.7546H89.9848L89.9542 69.3559C89.6167 69.6319 89.2026 69.7853 88.7578 69.816C88.083 69.816 87.8069 69.4325 87.8069 68.727V66.5951H87.8223ZM91.8867 69.7546H91.4726V65.092H91.8867V69.7546ZM92.7762 68.1749C92.6535 67.3927 93.1904 66.6718 93.9726 66.5491C94.0646 66.5338 94.1566 66.5338 94.2486 66.5338C95.1229 66.5338 95.4756 67.1166 95.4756 67.8681C95.4756 67.9908 95.4603 68.1135 95.445 68.2516H93.221C93.2517 69.2025 93.6812 69.4479 94.2486 69.4479C94.6321 69.5092 94.9848 69.2332 95.0462 68.8497L95.445 68.9264C95.3223 69.4939 94.8008 69.8773 94.218 69.816C93.0983 69.8313 92.7762 69.0491 92.7762 68.1749ZM95.0308 67.9295C95.0462 67.2853 94.8008 66.9019 94.2026 66.9019C93.6658 66.8865 93.221 67.3006 93.2057 67.8374C93.2057 67.8681 93.2057 67.8988 93.2057 67.9295H95.0308Z" fill="white"/>
</svg>
