<svg width="21" height="24" viewBox="0 0 21 24" fill="none" xmlns="http://www.w3.org/2000/svg">
<path d="M0.904439 15.1081C0.81408 15.0203 0.81408 14.9326 0.904439 14.8448C1.08512 14.6692 1.31105 14.6034 1.5821 14.6473C1.85317 14.6912 2.0113 14.7351 2.05648 14.779C2.37274 14.9106 2.7229 15.2068 3.10689 15.6677C3.49088 16.1285 3.79586 16.4467 4.02179 16.6222C5.10609 17.5 6.21296 17.5658 7.34244 16.8197C7.4328 16.5125 7.57965 16.2492 7.78293 16.0297C7.9862 15.8103 8.17826 15.6567 8.35898 15.5689C8.53973 15.4811 8.85599 15.3495 9.30778 15.1739C7.81683 15.0423 6.60829 14.7899 5.68211 14.4168C4.75594 14.0438 4.02175 13.572 3.4796 13.0015C2.75673 12.2115 2.31621 11.1802 2.15808 9.90748C1.99992 8.63476 2.10159 7.47175 2.46306 6.41846C2.73414 5.76016 3.11816 5.16772 3.6151 4.64104C3.25367 3.54387 3.32144 2.29309 3.81841 0.888705C5.26415 0.976479 6.57436 1.45924 7.74902 2.33698C10.008 1.76644 12.3573 1.7445 14.797 2.27115C15.1132 2.05171 15.5989 1.77743 16.254 1.44825C16.9091 1.1191 17.7336 0.932559 18.7276 0.888672C18.9083 1.37143 19.0326 1.94196 19.1003 2.60026C19.1681 3.25857 19.1342 3.87299 18.9987 4.44352C20.0378 5.4968 20.58 6.90119 20.6251 8.65667C20.6251 10.061 20.3767 11.2241 19.8797 12.1457C19.3827 13.0673 18.5017 13.8353 17.2367 14.4497C16.3783 14.8447 15.2488 15.0861 13.8482 15.1738C14.4808 15.4811 14.9439 15.7993 15.2375 16.1284C15.5312 16.4576 15.7232 16.9732 15.8136 17.6754V19.7491L15.8814 21.7569C16.0169 21.9764 16.1751 22.1629 16.3558 22.3165C16.5365 22.4701 16.6946 22.5799 16.8302 22.6457C16.9657 22.7115 17.0109 22.8103 16.9657 22.9419C16.9205 23.0736 16.7398 23.1394 16.4235 23.1394C15.6555 23.1394 15.0456 22.8761 14.5938 22.3494C14.4582 22.13 14.3905 21.8667 14.3905 21.5595V18.3996C14.3905 18.0485 14.3001 17.7961 14.1194 17.6425C13.9387 17.4889 13.758 17.3902 13.5772 17.3463V21.4936C13.5772 22.2397 13.6676 22.7224 13.8483 22.9419C14.029 23.1613 14.142 23.3808 14.1872 23.6002C14.2324 23.6441 14.1985 23.677 14.0855 23.6989C13.9726 23.7208 13.7806 23.688 13.5095 23.6002C12.9221 23.4685 12.5155 23.1723 12.2896 22.7115C12.0637 22.2506 11.9508 21.7569 11.9508 21.2302V17.1489H11.0698V21.2304C11.0698 21.757 10.9568 22.2617 10.7309 22.7445C10.4147 23.3589 9.82731 23.688 8.96894 23.7319C8.8334 23.688 8.76563 23.6441 8.76563 23.6003C8.81081 23.5564 8.94635 23.337 9.17225 22.942C9.21742 22.8542 9.27392 22.6787 9.34169 22.4153C9.40949 22.152 9.44336 21.8448 9.44336 21.4937V17.3464C9.26264 17.3902 9.0932 17.489 8.93507 17.6426C8.77694 17.7962 8.69786 18.0486 8.69786 18.3997V21.5595C8.69786 21.8667 8.63009 22.1301 8.49455 22.3495C8.08794 22.8761 7.47802 23.1395 6.66482 23.1395C6.34856 23.1395 6.16785 23.0737 6.12267 22.942C6.07745 22.8542 6.08876 22.7774 6.15657 22.7116C6.22437 22.6458 6.32601 22.5689 6.46155 22.4812C6.59708 22.3934 6.68745 22.3275 6.73262 22.2837C6.91334 22.152 7.04884 21.9765 7.13924 21.757C7.27478 21.5815 7.30864 21.1207 7.24088 20.3746C7.17311 19.6285 7.16179 19.1458 7.20697 18.9263C6.03227 19.3213 4.83505 19.1238 3.61517 18.3338C3.25374 17.9827 2.8923 17.478 2.53086 16.8197C2.25979 16.337 1.71763 15.7664 0.904439 15.1081Z" fill="white"/>
</svg>
