<svg width="16" height="12" viewBox="0 0 16 12" fill="none" xmlns="http://www.w3.org/2000/svg">
<path d="M13.9582 2.88866C13.9677 3.01543 13.9677 3.14223 13.9677 3.269C13.9677 7.13563 10.8744 11.5909 5.22083 11.5909C3.47906 11.5909 1.86105 11.111 0.5 10.2779C0.747472 10.305 0.985393 10.3141 1.24239 10.3141C2.67955 10.3141 4.00254 9.85229 5.05902 9.06447C3.70749 9.03729 2.57487 8.19514 2.18464 7.03604C2.37501 7.06319 2.56535 7.08131 2.76524 7.08131C3.04125 7.08131 3.31729 7.04507 3.57425 6.98172C2.16562 6.71003 1.10911 5.53284 1.10911 4.11115V4.07494C1.51836 4.29227 1.99429 4.4281 2.4987 4.44619C1.67065 3.92096 1.12816 3.02449 1.12816 2.01028C1.12816 1.46696 1.28041 0.968917 1.54693 0.534255C3.06026 2.30911 5.33503 3.46818 7.88577 3.59498C7.83819 3.37765 7.80963 3.15129 7.80963 2.9249C7.80963 1.31302 9.1802 0 10.8839 0C11.769 0 12.5685 0.35316 13.1301 0.92365C13.8249 0.796881 14.4911 0.552373 15.0812 0.217331C14.8528 0.896501 14.3674 1.46699 13.7297 1.82918C14.3484 1.76583 14.948 1.60279 15.5 1.37643C15.0813 1.95595 14.5578 2.47209 13.9582 2.88866Z" fill="white"/>
</svg>
