<svg width="15" height="14" viewBox="0 0 15 14" fill="none" xmlns="http://www.w3.org/2000/svg">
<path d="M3.7348 13.7497V4.64093H0.680057V13.7497H3.73512H3.7348ZM2.20807 3.3975C3.2731 3.3975 3.93615 2.69806 3.93615 1.82395C3.91621 0.929924 3.2731 0.25 2.22832 0.25C1.18283 0.25 0.5 0.929924 0.5 1.82387C0.5 2.69798 1.16281 3.39742 2.18805 3.39742H2.20783L2.20807 3.3975ZM5.42564 13.7497H8.48015V8.66349C8.48015 8.39162 8.50008 8.11903 8.58078 7.92485C8.80151 7.3807 9.30412 6.81743 10.1482 6.81743C11.2532 6.81743 11.6956 7.65266 11.6956 8.87728V13.7497H14.75V8.527C14.75 5.7293 13.2432 4.42739 11.2335 4.42739C9.58577 4.42739 8.86211 5.34014 8.46005 5.96182H8.48039V4.64125H5.4258C5.46567 5.49576 5.42556 13.75 5.42556 13.75L5.42564 13.7497Z" fill="white"/>
</svg>
