<svg width="80" height="48" viewBox="0 0 80 48" fill="none" xmlns="http://www.w3.org/2000/svg">
<path fill-rule="evenodd" clip-rule="evenodd" d="M43.8957 39.5272H42.6771V44.2844C42.6771 44.9445 42.6243 45.4102 42.5198 45.6824C42.415 45.9543 42.2442 46.1902 42.0062 46.3903C41.5552 46.7622 40.971 46.9481 40.2541 46.9481C39.7506 46.9481 39.3136 46.855 38.943 46.6691C38.5727 46.4832 38.2967 46.2362 38.1155 45.9283C37.9341 45.6203 37.8436 45.0723 37.8436 44.2844V39.5272H36.6248V44.2702C36.6248 44.9461 36.6702 45.4415 36.7609 45.7576C36.8516 46.0734 36.9665 46.3398 37.1058 46.5578C37.2448 46.7758 37.4151 46.9728 37.6168 47.1485C38.2821 47.7162 39.1653 48 40.2663 48C41.3472 48 42.2224 47.7141 42.8918 47.1424C43.0934 46.9707 43.2635 46.7758 43.4027 46.5578C43.5418 46.3398 43.6588 46.0671 43.7535 45.7395C43.8484 45.4118 43.8957 44.9261 43.8957 44.2823V39.5272ZM12.825 39.5109H19.8804V40.5791H16.9372V47.9014H15.7184V40.5791H12.825V39.5109ZM74.1647 24.7963V31.2992L67.499 23.9416V33.1702H68.6348V26.7231L75.3172 34.1106V24.7963H74.1647ZM11.0874 32.5457V31.2308C10.111 31.8554 9.11086 32.1678 8.08626 32.1678C7.10597 32.1678 6.30131 31.8722 5.67227 31.2805C5.04298 30.6893 4.72833 29.9338 4.72833 29.015C4.72833 28.1037 5.04802 27.3453 5.68713 26.74C6.32651 26.1343 7.13011 25.8316 8.0982 25.8316C9.04188 25.8316 10.0078 26.1112 10.9961 26.67V25.3796C9.91127 24.9194 8.92514 24.6893 8.03797 24.6893C6.75126 24.6893 5.66935 25.105 4.79226 25.9366C3.91491 26.7678 3.47637 27.7929 3.47637 29.0123C3.47637 29.7797 3.66791 30.4931 4.05127 31.1527C4.43437 31.812 4.95464 32.3298 5.61205 32.7053C6.26947 33.0814 7.07015 33.2688 8.01383 33.2688C9.17532 33.2688 10.1999 33.0277 11.0874 32.5457ZM0 22.9516C0 22.9516 33.9539 2.43525 80 22.6057C80 22.6057 43.8375 11.8869 0 22.9516ZM1.16289 16.036C1.16289 16.036 26.279 -2.29048 64.9999 11.3101C64.9999 11.3101 32.2093 5.31688 1.16289 16.036ZM31.0465 1.74352C31.0465 1.74352 54.6512 -5.97876 79.3023 11.0797C79.3023 11.0797 59.5349 1.28252 31.0465 1.74352ZM21.6911 29.62L20.324 26.5874L19.0527 29.62H21.6911ZM24.5482 33.1702H23.31L22.1843 30.6885H18.5805L17.5254 33.1702H16.2824L20.3124 23.9766L24.5482 33.1702ZM42.8313 29.4475H43.9636C44.565 29.4475 45.0052 29.4996 45.2837 29.6035C45.5623 29.7071 45.7772 29.8651 45.9287 30.0768C46.0802 30.2885 46.1558 30.5223 46.1558 30.7777C46.1558 31.0254 46.0839 31.2571 45.9406 31.4727C45.7974 31.6886 45.6074 31.8475 45.3715 31.9492C45.1354 32.0513 44.6863 32.102 44.0241 32.102H42.8313V29.4475ZM42.8313 25.8645H43.8739C44.9089 25.8645 45.4262 26.2658 45.4262 27.0679C45.4262 27.4552 45.2896 27.7705 45.0168 28.014C44.7441 28.2576 44.2841 28.3793 43.6375 28.3793H42.8313V25.8645ZM41.6207 33.1702H44.4838C45.1296 33.1702 45.6671 33.0642 46.0971 32.8525C46.5267 32.6406 46.8527 32.3668 47.0748 32.031C47.2968 31.6954 47.4077 31.3136 47.4077 30.886C47.4077 30.3461 47.2249 29.8825 46.8599 29.4949C46.4946 29.107 46.0035 28.855 45.3856 28.7393C46.2476 28.3835 46.6782 27.7945 46.6782 26.9716C46.6782 26.544 46.575 26.1674 46.3693 25.8419C46.1629 25.5163 45.8645 25.2607 45.4729 25.0748C45.081 24.8891 44.5358 24.7963 43.8376 24.7963H41.6207V33.1702ZM57.1262 25.8153C56.1586 25.8153 55.3635 26.1151 54.7406 26.7152C54.1179 27.3151 53.8065 28.0809 53.8065 29.0126C53.8065 29.9162 54.1187 30.6683 54.7438 31.2681C55.3683 31.868 56.1507 32.1678 57.0901 32.1678C58.033 32.1678 58.8201 31.8619 59.4513 31.2502C60.0819 30.638 60.3973 29.8762 60.3973 28.9645C60.3973 28.0767 60.0819 27.3298 59.4513 26.7242C58.8201 26.1183 58.0452 25.8153 57.1262 25.8153ZM57.0766 24.673C58.3824 24.673 59.4696 25.0829 60.3385 25.9029C61.2068 26.7226 61.6411 27.7503 61.6411 28.986C61.6411 30.2218 61.2028 31.2445 60.326 32.0542C59.4494 32.8639 58.3439 33.2688 57.0102 33.2688C55.7365 33.2688 54.6753 32.8639 53.8271 32.0542C52.9787 31.2445 52.5545 30.2296 52.5545 29.01C52.5545 27.7582 52.9816 26.7226 53.8362 25.9029C54.6907 25.0829 55.7707 24.673 57.0766 24.673ZM51.9962 44.3951L51.0767 43.8421C50.4994 43.4934 50.089 43.1505 49.8449 42.8123C49.6008 42.4744 49.4785 42.0857 49.4785 41.6457C49.4785 40.9859 49.7096 40.4502 50.1715 40.0384C50.6336 39.6263 51.2335 39.4204 51.9718 39.4204C52.6778 39.4204 53.3251 39.6155 53.9141 40.0061V41.3701C53.3047 40.7882 52.6483 40.497 51.9461 40.497C51.5505 40.497 51.2253 40.5872 50.9711 40.7687C50.7167 40.9494 50.5896 41.181 50.5896 41.4637C50.5896 41.7144 50.6833 41.9492 50.8711 42.168C51.0587 42.3868 51.36 42.6169 51.775 42.858L52.6993 43.4011C53.7303 44.012 54.2457 44.7893 54.2457 45.7329C54.2457 46.4048 54.0186 46.9505 53.565 47.3702C53.1108 47.7901 52.5205 48 51.7943 48C50.9584 48 50.1978 47.7447 49.5117 47.2337V45.7134C50.1662 46.5368 50.9234 46.9481 51.7835 46.9481C52.1628 46.9481 52.4791 46.8434 52.7314 46.6338C52.9837 46.4243 53.11 46.1621 53.11 45.8468C53.11 45.3358 52.7388 44.8519 51.9962 44.3951ZM66.2508 39.5109H59.1953V40.5791H62.0887V47.9014H63.3075V40.5791H66.2508V39.5109ZM34.9522 33.1681L32.1474 29.4851C31.6993 29.5362 31.373 29.5298 31.373 29.5298H31.0578V33.1702H29.8473V24.7963H31.9654C32.8208 24.7963 33.4994 25.0061 34.0019 25.4261C34.5041 25.8461 34.7554 26.4138 34.7554 27.1299C34.7554 27.6177 34.6323 28.0398 34.3863 28.3956C34.1404 28.7517 33.7878 29.0176 33.328 29.1935L36.3639 33.1702L34.9522 33.1681ZM31.421 25.8153H31.0578V28.4614H31.5179C32.1313 28.4614 32.552 28.4093 32.7799 28.3054C33.0081 28.2013 33.1856 28.0446 33.3129 27.8344C33.44 27.6246 33.5034 27.3853 33.5034 27.1173C33.5034 26.8533 33.4328 26.6142 33.2917 26.4002C33.1503 26.1864 32.9516 26.0354 32.6953 25.9473C32.439 25.8592 32.0143 25.8153 31.421 25.8153ZM27.6869 44.2047L30.4914 47.8877L31.9031 47.89L28.8675 43.9133C29.327 43.7374 29.6798 43.4713 29.9258 43.1154C30.1717 42.7594 30.2948 42.3376 30.2948 41.8495C30.2948 41.1337 30.0436 40.5656 29.5411 40.1459C29.0389 39.726 28.36 39.5158 27.5049 39.5158H25.3867V47.89H26.597V44.2494H26.9122C26.9122 44.2494 27.2388 44.256 27.6869 44.2047ZM26.597 40.5349H26.9602C27.5537 40.5349 27.9785 40.5788 28.2345 40.6669C28.4908 40.755 28.6897 40.9059 28.8309 41.12C28.972 41.3338 29.0428 41.5731 29.0428 41.8369C29.0428 42.1051 28.9792 42.3441 28.8521 42.5543C28.725 42.7644 28.5473 42.9211 28.3194 43.0253C28.0912 43.1291 27.6707 43.1812 27.0573 43.1812H26.597V40.5349Z" fill="white"/>
</svg>
