<svg width="100" height="14" viewBox="0 0 100 14" fill="none" xmlns="http://www.w3.org/2000/svg">
<path d="M0 12.802H2.22V0.0200195L0 1.60539V12.802Z" fill="white"/>
<path d="M8.89998 3.03198C7.47998 3.03198 5.83998 3.32924 4.47998 3.84448V12.782H6.63998V5.2515C7.19998 5.07314 7.95998 4.97406 8.71998 4.97406C9.91998 4.97406 10.78 5.46948 10.78 6.85668V12.8018H12.92V6.65851C12.92 3.96338 11.36 3.03198 8.89998 3.03198Z" fill="white"/>
<path d="M19.4398 3.03198C18.0198 3.03198 16.3798 3.32924 15.0198 3.84448V12.782H17.1798V5.2515C17.7398 5.07314 18.4998 4.97406 19.2598 4.97406C20.4598 4.97406 21.3198 5.46948 21.3198 6.85668V12.8018H23.4598V6.65851C23.4598 3.96338 21.8998 3.03198 19.4398 3.03198Z" fill="white"/>
<path d="M67.4999 3.05176C64.8599 3.05176 62.8599 5.0731 62.8599 8.10511C62.8599 11.1173 64.8999 13.0197 67.8999 13.0197C69.1399 13.0197 70.4199 12.7423 71.2799 12.128V12.0883L70.3199 10.7804C69.6599 11.0579 68.9399 11.1966 68.0399 11.1966C66.5399 11.1966 65.0599 10.2652 64.9399 8.58072V8.54109H71.6199V7.47096C71.6199 4.83529 70.2999 3.05176 67.4999 3.05176ZM67.4399 4.83529C68.8199 4.83529 69.5599 5.64779 69.6199 7.13407H65.0199C65.2799 5.68743 66.1999 4.83529 67.4399 4.83529Z" fill="white"/>
<path d="M30.1402 3.03198C27.2602 3.03198 25.1802 5.05332 25.1802 8.02589C25.1802 10.9786 27.2602 13 30.1402 13C33.0402 13 35.1202 10.9786 35.1202 8.02589C35.1202 5.07314 33.0202 3.03198 30.1402 3.03198ZM30.1402 4.87497C31.8002 4.87497 32.9402 6.10363 32.9402 8.0457C32.9402 9.96796 31.7802 11.1966 30.1402 11.1966C28.5402 11.1966 27.3602 9.96796 27.3602 8.0457C27.3602 6.10363 28.5202 4.87497 30.1402 4.87497Z" fill="white"/>
<path d="M40.46 10.721L37.74 3.25H35.46L39.18 12.8018H41.64L45.38 3.25H43.16L40.46 10.721Z" fill="white"/>
<path d="M49.9599 3.03198C48.7599 3.03198 47.6799 3.32924 46.8399 3.80485V5.64784C47.6399 5.19204 48.5199 4.87497 49.6199 4.87497C50.6799 4.87497 51.4599 5.35058 51.4599 6.38107V7.17375H50.3999C47.6199 7.17375 45.9399 8.12497 45.9399 10.067C45.9399 12.2271 47.7599 12.9802 50.2599 12.9802C51.3399 12.9802 52.6599 12.8216 53.5599 12.5838V6.3018C53.5599 3.90393 52.0599 3.03198 49.9599 3.03198ZM50.5399 8.6204H51.4599V11.2957C51.0599 11.3552 50.6199 11.3948 50.2799 11.3948C48.9799 11.3948 48.0599 10.9984 48.0599 10.0076C48.0599 9.05638 49.0399 8.6204 50.5399 8.6204Z" fill="white"/>
<path d="M58.7199 9.69055V5.15244H61.4599V3.3689H58.7199V0L56.5799 1.52591V3.3689H55.1199V5.15244H56.5799V10.1662C56.5799 12.346 57.8999 13.1189 59.4799 13.1189C60.3999 13.1189 61.1799 12.9207 61.7999 12.6037V10.6814C61.2199 11.0183 60.6599 11.2165 60.0399 11.2165C59.2199 11.2363 58.7199 10.8399 58.7199 9.69055Z" fill="white"/>
<path d="M85 11.3158C84.24 11.4545 83.46 11.5337 82.46 11.5337C80.54 11.5337 79.24 10.8798 79.24 8.42246V0.0200195L77.02 1.6252V8.83862C77.02 12.3859 79.52 13.4362 82.46 13.4362C84 13.4362 86.02 13.1786 87.22 12.8615V0.0200195H85V11.3158Z" fill="white"/>
<path d="M89.72 0.0200195H91.94V12.8218H89.72V0.0200195Z" fill="white"/>
<path d="M99.62 0.0200195H97.2L92.5 6.42094L97.2 12.802H99.62L94.92 6.40112L99.62 0.0200195Z" fill="white"/>
</svg>
