<svg width="100" height="25" viewBox="0 0 100 25" fill="none" xmlns="http://www.w3.org/2000/svg">
<path fill-rule="evenodd" clip-rule="evenodd" d="M5.87311 0L5.89572 0.0813852L8.16522 8.24873L8.16822 8.25953L8.16837 8.27072L8.18257 9.35157L8.1835 9.42196C8.23079 9.43027 8.27805 9.44223 8.32492 9.458C8.73478 9.5936 8.98641 9.97696 8.96319 10.3789L8.98835 10.3841L9.97556 10.5882L11.0501 9.98482L11.0712 9.97293L11.0937 9.98231L18.3453 13.0115L18.3858 13.0284L18.3728 13.0694L18.2137 13.571L18.1998 13.6148L18.1545 13.6031L9.7667 11.4358L9.76069 11.4343L9.75527 11.4313L8.78953 10.902L8.76933 10.8909C8.74603 10.9207 8.72101 10.9488 8.69446 10.9753L9.06614 24.9773L9.06674 25H9.04351H7.13758H7.11435L7.11495 24.9773L7.48235 11.1366L7.47498 11.1445L6.79733 11.8764L6.79453 13.0859L6.79448 13.1097L6.77496 13.124L0.463534 17.7384L0.428311 17.7641L0.398371 17.7326L0.0319554 17.3474L0 17.3138L0.0331249 17.2813L6.1514 11.2784L6.15577 11.2741L6.1611 11.2711L7.11264 10.7195L7.14846 10.6988L7.15891 10.711C7.06282 10.5047 7.04438 10.2634 7.12626 10.0317C7.20499 9.80515 7.3652 9.62816 7.5642 9.52139L7.54293 9.45766L7.2355 8.53634L6.17746 7.93527L6.13849 7.91313L6.13312 7.86945L5.19294 0.228666L5.18316 0.149193L5.26325 0.131874L5.78873 0.0182454L5.87311 0ZM7.48022 11.0866L7.48357 11.0905L7.48362 11.0889C7.48248 11.0881 7.48135 11.0874 7.48022 11.0866ZM10.5535 2.66729L10.7576 2.67682C13.5399 2.80679 15.6812 5.10325 15.542 7.81346L15.5318 8.01253L15.1237 7.99258L15.1339 7.79351C15.2617 5.30455 13.2957 3.19447 10.7381 3.07501L10.534 3.06548L10.5535 2.66729ZM10.1031 3.8789L10.5956 3.90179C12.736 4.00123 14.386 5.76831 14.278 7.85511L14.2532 8.33381L13.9228 7.97912L12.8389 6.81559C12.9704 7.14973 13.034 7.51574 13.014 7.89683L12.9889 8.37532L12.6587 8.02063L10.2728 5.45707L9.94175 5.1014L10.4336 5.12397C10.8239 5.14188 11.1908 5.23895 11.5187 5.3985L10.4348 4.23495L10.1031 3.8789ZM13.8562 7.31495L11.1074 4.36433C12.5849 4.65673 13.7019 5.85482 13.8562 7.31495ZM12.5663 7.32835L10.9711 5.6144C11.7866 5.85246 12.4031 6.51501 12.5663 7.32835ZM10.2721 6.3461L10.068 6.33626L10.0478 6.73458L10.252 6.74442C10.8875 6.77507 11.3755 7.29773 11.3418 7.91482L11.331 8.11394L11.7391 8.13514L11.75 7.93602C11.7959 7.09536 11.1306 6.38751 10.2721 6.3461ZM45.3517 16.98C45.3517 13.4633 47.5918 11.1626 50.6234 11.1626C53.7225 11.1626 55.7267 13.4797 55.7267 16.7664C55.7267 20.5789 53.3519 22.6002 50.455 22.6002C47.4571 22.6002 45.3517 20.3324 45.3517 16.98ZM54.1772 16.8321C54.1772 14.6301 52.9982 12.3294 50.5561 12.3294C48.1307 12.3294 46.9181 14.515 46.9181 16.9471C46.9181 19.3135 48.2318 21.4334 50.5392 21.4334C52.8635 21.4334 54.1772 19.3464 54.1772 16.8321ZM25.3918 22.4194L24.1792 18.9356H20.1538L18.9748 22.4194H17.459L21.316 11.3434H23.0844L26.9582 22.4194H25.3918ZM21.5686 14.6136L20.457 17.8181H23.876L22.7644 14.6301C22.5271 13.9507 22.364 13.3294 22.2055 12.7253L22.1749 12.6088H22.1412C21.9728 13.2661 21.7875 13.9399 21.5686 14.6136ZM30.096 16.0433H34.5088V17.2265H30.096V21.2198H35.0141V22.4194H28.6307V11.3434H34.7614V12.543H30.096V16.0433ZM38.3857 22.4194H36.9204V11.4913C37.6615 11.3434 38.7226 11.2612 39.7331 11.2612C41.2995 11.2612 42.31 11.5406 43.0174 12.1651C43.5901 12.6581 43.9101 13.414 43.9101 14.2685C43.9101 15.7311 42.9669 16.7006 41.7711 17.095V17.1443C42.6469 17.4401 43.169 18.2289 43.4385 19.3793C43.809 20.924 44.0785 21.9922 44.3143 22.4194H42.7985C42.6132 22.1072 42.3606 21.1541 42.0405 19.7737C41.7037 18.2454 41.0974 17.6702 39.7668 17.6209H38.3857V22.4194ZM39.8342 12.3623C39.1268 12.3623 38.6215 12.428 38.3857 12.4937V16.5363H39.8847C41.4511 16.5363 42.4448 15.6982 42.4448 14.4329C42.4448 13.0032 41.3837 12.3787 39.8342 12.3623ZM57.0563 21.8771C57.6626 22.2715 58.8584 22.5838 59.9532 22.5838C62.6312 22.5838 63.928 21.1048 63.928 19.3957C63.928 17.7688 62.9512 16.865 61.0311 16.1419C59.4648 15.5503 58.7742 15.0409 58.7742 14.0056C58.7742 13.2497 59.3637 12.3458 60.9132 12.3458C61.9406 12.3458 62.6985 12.6745 63.0691 12.8717L63.4733 11.7049C62.968 11.4256 62.1259 11.1626 60.9638 11.1626C58.7574 11.1626 57.2921 12.4444 57.2921 14.1699C57.2921 15.7311 58.4374 16.6678 60.2901 17.3087C61.8227 17.8838 62.4291 18.4754 62.4291 19.5107C62.4291 20.6282 61.5533 21.4006 60.0543 21.4006C59.0437 21.4006 58.0837 21.0719 57.4268 20.6775L57.0563 21.8771ZM71.8131 16.0433H67.4004V12.543H72.0658V11.3434H65.9351V22.4194H72.3184V21.2198H67.4004V17.2265H71.8131V16.0433ZM75.6058 22.4194V17.6866C75.6058 15.8461 75.5722 14.515 75.4879 13.1182L75.5385 13.1018C76.1111 14.3014 76.869 15.5668 77.6606 16.7992L81.2649 22.4194H82.7471V11.3434H81.366V15.9776C81.366 17.7031 81.3997 19.0506 81.5344 20.5296L81.5007 20.546C80.9618 19.4121 80.3049 18.2454 79.4628 16.9471L75.8248 11.3434H74.2248V22.4194H75.6058ZM84.7379 21.8771C85.3442 22.2715 86.5401 22.5838 87.6348 22.5838C90.3128 22.5838 91.6097 21.1048 91.6097 19.3957C91.6097 17.7688 90.6328 16.865 88.7127 16.1419C87.1464 15.5503 86.4558 15.0409 86.4558 14.0056C86.4558 13.2497 87.0453 12.3458 88.5948 12.3458C89.6222 12.3458 90.3801 12.6745 90.7507 12.8717L91.1549 11.7049C90.6496 11.4256 89.8075 11.1626 88.6454 11.1626C86.439 11.1626 84.9737 12.4444 84.9737 14.1699C84.9737 15.7311 86.119 16.6678 87.9717 17.3087C89.5043 17.8838 90.1107 18.4754 90.1107 19.5107C90.1107 20.6282 89.2349 21.4006 87.7359 21.4006C86.7253 21.4006 85.7653 21.0719 85.1084 20.6775L84.7379 21.8771ZM99.4947 16.0433H95.082V12.543H99.7474V11.3434H93.6167V22.4194H100V21.2198H95.082V17.2265H99.4947V16.0433Z" fill="white"/>
</svg>
